# xmcd CD database file
#
# Track frame offsets:
#	150
#	24621
#	54011
#	72294
#	99413
#	111933
#	132166
#	151017
#	174973
#	193019
#
# Disc length: 2817 seconds
#
# Revision: 0
# Processed by: cddbd v1.5.2PL0 Copyright (c) Steve Scherf et al.
# Submitted via: CDex 1.70beta2
#
DISCID=760aff0a
DTITLE=Andrea og Blúsmenn - Andrea og Blúsmenn
DYEAR=1998
DGENRE=Blues
TTITLE0=God bless the child
TTITLE1=I'd rather go blind
TTITLE2=Trouble in mind
TTITLE3=Lady sings the blues
TTITLE4=29 ways
TTITLE5=Stormy Monday
TTITLE6=Mama's got the blues
TTITLE7=Ball 'n' chain
TTITLE8=Hound dog
TTITLE9=I've been loving you too long
EXTD=YEAR: 1998
EXTT0=
EXTT1=
EXTT2=
EXTT3=
EXTT4=
EXTT5=
EXTT6=
EXTT7=
EXTT8=
EXTT9=
PLAYORDER=
